# xmcd CD database file
#
# Track frame offsets:
#	150
#	44405
#	71529
#	126881
#	189176
#
# Disc length: 3280 seconds
#
# Revision: 0
# Processed by: cddbd v1.5.1PL0 Copyright (c) Steve Scherf et al.
# Submitted via: CDex 1.51
#
DISCID=3f0cce05
DTITLE=McCoy Tyner Trio feat. Gary Bartz - Jazzfestival Bern
DYEAR=2004
DGENRE=Jazz
TTITLE0=Serra Do Mar (Tyner)
TTITLE1=I'll Take Romance (Hammerstein II-Rodgers)
TTITLE2=Soulstice (Bartz)
TTITLE3=Ballad For Aisha (Tyner)
TTITLE4=Tranelike (Tyner)
EXTD=YEAR: 2004
EXTT0=
EXTT1=
EXTT2=
EXTT3=
EXTT4=
PLAYORDER=
